<?xml version="1.0" encoding="UTF-8"?>
<!DOCTYPE svg PUBLIC "-//W3C//DTD SVG 1.1//EN" "http://www.w3.org/Graphics/SVG/1.1/DTD/svg11.dtd">
<!-- Creator: CorelDRAW 2020 (64 Bit) -->
<svg xmlns="http://www.w3.org/2000/svg" xml:space="preserve" width="450px" height="120px" version="1.1" shape-rendering="geometricPrecision" text-rendering="geometricPrecision" image-rendering="optimizeQuality" fill-rule="evenodd" clip-rule="evenodd"
viewBox="0 0 450 120"
 xmlns:xlink="http://www.w3.org/1999/xlink"
 xmlns:xodm="http://www.corel.com/coreldraw/odm/2003">
 <g id="Camada_x0020_1">
  <metadata id="CorelCorpID_0Corel-Layer"/>
  <path fill="#315C72" fill-rule="nonzero" d="M286 24c1,0 2,0 3,1 1,1 2,2 2,3 1,1 1,2 1,4 0,1 0,3 -1,4 -1,1 -1,2 -2,3 -1,1 -2,1 -3,1 -1,0 -2,0 -3,-1 -1,0 -1,-1 -2,-2l0 6c0,1 0,1 -1,1 0,0 -1,0 -1,0 -1,0 -1,0 -1,0 0,0 -1,-1 -1,-1l0 -17c0,-1 0,-1 0,-1 0,0 1,0 1,0 1,0 1,0 1,0 0,0 1,1 1,1l0 1c0,-1 1,-1 2,-2 1,0 2,-1 3,-1zm-1 12c1,0 2,0 3,-1 1,-1 1,-2 1,-3 0,-1 0,-3 -1,-3 -1,-1 -2,-1 -3,-1 -1,0 -2,0 -3,1 -1,1 -1,2 -1,3 0,1 0,3 1,3 1,1 2,1 3,1z"/>
  <path id="1" fill="#315C72" fill-rule="nonzero" d="M302 39c-1,0 -3,0 -4,-1 -1,-1 -2,-1 -3,-3 -1,-1 -1,-2 -1,-4 0,-2 0,-3 1,-4 1,-1 1,-2 3,-3 1,-1 2,-1 4,-1 1,0 3,0 4,1 1,1 2,1 3,3 1,1 1,2 1,4 0,2 0,3 -1,4 -1,1 -1,2 -3,3 -1,1 -2,1 -4,1zm0 -3c1,0 2,0 3,-1 1,-1 1,-2 1,-3 0,-2 0,-3 -1,-3 -1,-1 -2,-1 -3,-1 -1,0 -2,0 -3,1 -1,1 -1,2 -1,3 0,2 0,3 1,3 1,1 2,1 3,1z"/>
  <path id="2" fill="#315C72" fill-rule="nonzero" d="M320 24c1,0 1,0 1,0 0,0 0,1 0,1 0,1 0,1 0,1 0,0 -1,0 -1,1l-1 0c-1,0 -2,1 -3,1 -1,1 -1,2 -1,2l0 6c0,1 0,1 -1,1 0,0 -1,0 -1,0 -1,0 -1,0 -1,0 0,0 -1,-1 -1,-1l0 -11c0,-1 0,-1 1,-1 0,0 1,0 1,0 1,0 1,0 1,0 0,0 0,1 0,1l0 1c0,-1 1,-2 2,-2 1,0 2,-1 2,-1l0 0z"/>
  <path id="3" fill="#315C72" fill-rule="nonzero" d="M332 36c1,0 1,1 1,1 0,0 0,1 -1,1 0,0 -1,0 -2,0l-1 0c-3,0 -5,-2 -5,-5l0 -6 -1 0c-1,0 -1,0 -1,0 0,0 0,-1 0,-1 0,0 0,-1 0,-1 0,0 1,0 1,0l1 0 0 -3c0,-1 0,-1 1,-1 0,0 1,0 1,0 1,0 1,0 1,0 0,0 1,1 1,1l0 3 3 0c1,0 1,0 1,0 0,0 0,1 0,1 0,0 0,1 0,1 0,0 -1,0 -1,0l-3 0 0 7c0,1 1,2 2,2l1 0z"/>
  <path id="4" fill="#315C72" fill-rule="nonzero" d="M342 24c2,0 3,0 4,1 1,1 1,2 1,5l0 7c0,1 0,1 0,1 0,0 -1,0 -1,0 -1,0 -1,0 -1,0 0,0 0,-1 0,-1l0 -1c0,1 -1,1 -2,2 -1,0 -2,1 -2,1 -1,0 -2,0 -3,-1 -1,0 -1,-1 -2,-2 0,-1 -1,-1 -1,-2 0,-1 0,-2 1,-3 1,-1 1,-1 3,-1 1,0 3,0 5,0l1 0 0 -1c0,-1 0,-2 -1,-2 0,0 -1,-1 -2,-1 -1,0 -1,0 -2,0 -1,0 -1,0 -2,1 -1,0 -1,0 -1,0 0,0 -1,0 -1,0 0,0 0,-1 0,-1 0,0 0,-1 0,-1 0,0 0,0 1,-1 1,0 2,-1 2,-1 1,0 2,0 3,0zm-1 12c1,0 2,0 2,-1 1,-1 1,-2 1,-3l0 -1 -1 0c-1,0 -2,0 -3,0 -1,0 -1,0 -2,1 0,0 0,1 0,1 0,1 0,1 1,2 0,0 1,1 2,1z"/>
  <path id="5" fill="#315C72" fill-rule="nonzero" d="M353 39c-1,0 -1,0 -1,0 0,0 -1,-1 -1,-1l0 -18c0,-1 0,-1 1,-1 0,0 1,0 1,0 1,0 1,0 1,0 0,0 1,1 1,1l0 18c0,1 0,1 -1,1 0,0 -1,0 -1,0z"/>
  <path id="6" fill="#315C72" fill-rule="nonzero" d="M379 18c1,0 1,0 1,0 0,0 1,1 1,1l0 18c0,1 0,1 -1,1 0,0 -1,0 -1,0 -1,0 -1,0 -1,0 0,0 -1,-1 -1,-1l0 -1c0,1 -1,1 -2,2 -1,0 -2,1 -3,1 -1,0 -2,0 -3,-1 -1,-1 -2,-2 -2,-3 -1,-1 -1,-2 -1,-4 0,-1 0,-3 1,-4 1,-1 1,-2 2,-3 1,-1 2,-1 3,-1 1,0 2,0 3,1 1,0 1,1 2,2l0 -7c0,0 0,-1 0,-1 0,0 1,0 1,0zm-5 18c1,0 2,0 3,-1 1,-1 1,-2 1,-3 0,-1 0,-3 -1,-3 -1,-1 -2,-1 -3,-1 -1,0 -2,0 -3,1 -1,1 -1,2 -1,3 0,1 0,3 1,3 1,1 2,1 3,1z"/>
  <path id="7" fill="#315C72" fill-rule="nonzero" d="M391 39c-1,0 -3,0 -4,-1 -1,-1 -2,-1 -3,-3 -1,-1 -1,-2 -1,-4 0,-2 0,-3 1,-4 1,-1 1,-2 3,-3 1,-1 2,-1 4,-1 1,0 3,0 4,1 1,1 2,1 3,3 1,1 1,2 1,4 0,2 0,3 -1,4 -1,1 -1,2 -3,3 -1,1 -2,1 -4,1zm0 -3c1,0 2,0 3,-1 1,-1 1,-2 1,-3 0,-2 0,-3 -1,-3 -1,-1 -2,-1 -3,-1 -1,0 -2,0 -3,1 -1,1 -1,2 -1,3 0,2 0,3 1,3 1,1 2,1 3,1z"/>
  <path fill="#5D889E" fill-rule="nonzero" d="M119 112c-5,0 -9,-1 -13,-3 -4,-2 -7,-5 -9,-9 -2,-4 -3,-8 -3,-13 0,-6 1,-10 3,-15 2,-4 5,-7 9,-10 4,-2 9,-3 14,-3 3,0 6,0 9,1 3,1 5,2 7,3 2,1 2,2 2,4 0,1 0,3 -1,4 -1,1 -2,2 -3,2 -1,0 -1,0 -2,-1 -4,-2 -8,-3 -12,-3 -5,0 -8,2 -11,5 -3,3 -4,7 -4,13 0,5 1,8 3,11 2,3 5,4 10,4 2,0 4,0 6,-1 2,-1 3,-1 5,-3 1,0 2,-1 2,-1 1,0 2,0 3,1 1,1 1,2 1,3 0,1 0,2 -1,3 0,1 -1,2 -2,2 -2,1 -4,3 -7,3 -3,1 -6,1 -9,1z"/>
  <path id="1" fill="#5D889E" fill-rule="nonzero" d="M151 112c-2,0 -3,-1 -4,-2 -1,-1 -2,-3 -2,-5l5 -61c0,-2 1,-3 2,-4 1,-1 3,-1 5,-1 2,0 3,0 4,1 1,1 2,2 2,4l-5 61c0,2 -1,4 -2,5 -1,1 -3,2 -5,2z"/>
  <path id="2" fill="#5D889E" fill-rule="nonzero" d="M177 112c-2,0 -3,-1 -4,-2 -1,-1 -2,-3 -2,-5l3 -39c0,-2 1,-3 2,-4 1,-1 3,-1 5,-1 2,0 3,1 4,1 1,1 2,2 1,4l-3 39c0,2 -1,4 -2,5 -1,1 -3,2 -5,2zm5 -60c-2,0 -4,-1 -6,-2 -1,-1 -2,-3 -2,-5 0,-2 1,-4 2,-5 1,-1 3,-2 6,-2 2,0 4,1 5,2 1,1 2,3 2,5 0,2 -1,4 -2,5 -1,1 -3,2 -5,2z"/>
  <path id="3" fill="#5D889E" fill-rule="nonzero" d="M243 84c0,1 0,3 -1,3 -1,1 -2,1 -3,1l-30 0c0,4 1,8 4,10 2,2 6,3 10,3 2,0 5,0 6,-1 2,-1 4,-1 6,-3 1,0 2,-1 3,-1 1,0 2,0 3,1 1,1 1,2 1,3 0,2 -1,4 -3,5 -2,1 -4,2 -7,3 -3,1 -6,1 -9,1 -5,0 -10,-1 -13,-3 -4,-2 -7,-5 -9,-9 -2,-4 -3,-8 -3,-13 0,-5 1,-10 3,-14 2,-4 5,-7 9,-10 4,-2 8,-4 13,-4 7,0 12,2 16,6 4,4 6,10 6,18zm-21 -15c-7,0 -11,4 -13,13l23 0c0,-4 -1,-7 -3,-9 -2,-2 -4,-3 -8,-3z"/>
  <path id="4" fill="#5D889E" fill-rule="nonzero" d="M283 60c6,0 10,2 13,5 3,3 4,7 4,13 0,1 0,2 0,3l-2 25c0,2 -1,3 -2,4 -1,1 -3,2 -5,2 -2,0 -3,-1 -5,-2 -1,-1 -2,-3 -1,-4l2 -24c1,-8 -2,-11 -9,-11 -4,0 -7,1 -9,3 -2,2 -3,5 -4,9l-2 23c0,2 -1,3 -2,4 -1,1 -3,2 -5,2 -2,0 -3,-1 -5,-2 -1,-1 -2,-3 -1,-4l3 -40c0,-2 1,-3 2,-4 1,-1 3,-2 5,-2 2,0 3,1 4,2 1,1 1,2 1,4l0 2c2,-2 4,-4 7,-6 3,-1 6,-2 10,-2z"/>
  <path id="5" fill="#5D889E" fill-rule="nonzero" d="M328 92c0,0 0,1 0,2 0,3 1,5 2,6 1,1 3,2 5,2 1,0 1,0 2,0 1,0 2,0 2,0 1,0 2,0 2,1 1,1 1,2 1,3 0,2 -1,4 -2,4 -2,1 -4,1 -8,1 -6,0 -10,-1 -13,-4 -3,-3 -4,-7 -4,-12 0,-1 0,-2 0,-3l2 -21 -5 0c-2,0 -3,0 -4,-1 -1,-1 -1,-2 -1,-3 0,-3 2,-5 6,-5l5 0 1 -9c0,-2 1,-3 2,-4 1,-1 3,-2 5,-2 2,0 3,1 5,2 1,1 2,3 1,4l-1 9 9 0c2,0 3,0 4,1 1,1 1,2 1,3 0,3 -2,5 -6,5l-9 0 -2 21z"/>
  <path id="6" fill="#5D889E" fill-rule="nonzero" d="M394 84c0,1 0,3 -1,3 -1,1 -2,1 -3,1l-30 0c0,4 1,8 4,10 2,2 6,3 10,3 2,0 5,0 6,-1 2,-1 4,-1 6,-3 1,0 2,-1 3,-1 1,0 2,0 3,1 1,1 1,2 1,3 0,2 -1,4 -3,5 -2,1 -4,2 -7,3 -3,1 -6,1 -9,1 -5,0 -10,-1 -13,-3 -4,-2 -7,-5 -9,-9 -2,-4 -3,-8 -3,-13 0,-5 1,-10 3,-14 2,-4 5,-7 9,-10 4,-2 8,-4 13,-4 7,0 12,2 16,6 4,4 6,10 6,18zm-21 -15c-7,0 -11,4 -13,13l23 0c0,-4 -1,-7 -3,-9 -2,-2 -4,-3 -8,-3z"/>
 </g>
</svg>
