<?xml version="1.0" encoding="UTF-8"?>
<!DOCTYPE svg PUBLIC "-//W3C//DTD SVG 1.1//EN" "http://www.w3.org/Graphics/SVG/1.1/DTD/svg11.dtd">
<!-- Creator: CorelDRAW 2020 (64 Bit) -->
<svg xmlns="http://www.w3.org/2000/svg" xml:space="preserve" width="63.4998mm" height="16.9332mm" version="1.1" shape-rendering="geometricPrecision" text-rendering="geometricPrecision" image-rendering="optimizeQuality" fill-rule="evenodd" clip-rule="evenodd"
viewBox="0 0 6349.98 1693.32"
 xmlns:xlink="http://www.w3.org/1999/xlink"
 xmlns:xodm="http://www.corel.com/coreldraw/odm/2003">
 <g id="Camada_x0020_1">
  <metadata id="CorelCorpID_0Corel-Layer"/>
  <path fill="#315C72" d="M5062.64 1264.82l298.55 0c9.72,0 11.82,-31.2 15.58,-51.71 21.9,-119.43 60.47,-311.77 69.02,-419.89 1.69,2.04 1.25,1.15 3.05,4.64l20.05 52.24c15.41,40.55 155.03,402.16 156.02,414.72l313.49 0c8.2,-37.09 13.57,-75.44 20.94,-114.19l148.23 -810.69 -306.01 0 -20.96 116.8c-16.29,92.21 -56.17,278.64 -56.17,362.67l-1.82 -3.31c-0.24,-0.5 -1.38,-2.77 -1.69,-3.47l-19.94 -52.36c-8.04,-21.16 -14.71,-38.72 -22.75,-59.88l-115.51 -302.8c-3.83,-10.07 -7.23,-19.01 -11.37,-29.95 -2.48,-6.53 -3.71,-10.13 -5.53,-15.14 -2.5,-6.85 -2.78,-12.56 -10.47,-12.56l-306.01 0 -20.12 115.07c-7.3,38.41 -13.5,76.67 -21.14,116.6l-84.19 461.54c-2.85,16.84 -41.25,216.67 -41.25,231.67z"/>
  <path fill="#315C72" d="M4385.93 656.97c0,151.6 101.09,227.4 228.66,254.39 35.1,7.43 128.01,23.53 111.89,75.24 -8.62,27.65 -38.5,34.56 -69.37,34.56 -101.22,0 -200.42,-89.79 -218.93,-94.33 -4.28,19.34 -95.26,240.13 -99.52,259.39l71.29 37.59c137.81,69.69 352.18,97.11 489.94,11.1 42.54,-26.57 61.74,-43.56 92.54,-80.72 13.31,-16.06 24.51,-32.96 34.57,-52.67 64.42,-126.37 49.64,-310.04 -91.21,-384.32 -66.13,-34.87 -231.4,-47.01 -231.4,-102.15 0,-34.41 44.25,-41.93 72.15,-41.93 39.66,0 70.08,11.31 98.82,24.31 16.03,7.25 26.56,13.46 41.31,22 11.98,6.96 26.88,21.47 38.99,24.44l94.55 -241.04c-99.55,-55.47 -180.29,-83.85 -313.48,-83.85 -51.07,0 -103.71,11.82 -141.46,26.58 -127.48,49.83 -209.34,160.69 -209.34,311.41z"/>
  <path fill="#5D889E" d="M3751.51 1141.68c-93.17,0 -155.36,-26.05 -208.36,-81.88 -22.13,-23.29 -41.42,-51.22 -54.67,-83.91 -36.68,-90.4 -34.67,-212.48 5.12,-299.7 26.91,-59 54.92,-100.68 105.78,-142.76 13.94,-11.53 33.95,-23.95 50.92,-32.82 165.39,-86.51 427.13,-3.13 427.13,263.78 0,89.05 -9.43,127.1 -43.1,198.29 -5.35,11.32 -9.76,17.63 -16.09,27.59 -58.06,91.34 -157.63,151.41 -266.73,151.41zm-420.46 -317.03c0,103.88 15.66,192.13 69.67,272.48l45.49 56.9c18.41,16.02 34.24,31.61 53.98,45.32 118.55,82.36 297.11,86.8 426.21,29.56 57.06,-25.31 96.99,-53.01 141.68,-94.46 36.33,-33.69 75.6,-97.48 96.46,-142.07 56.93,-121.71 60.44,-289.62 9.23,-415.9 -26.98,-66.54 -81.07,-132.09 -140.32,-169.26 -164.19,-103.01 -389.81,-80.09 -536.49,44.56 -7.34,6.24 -9.3,7.44 -15.99,14.6 -6.73,7.19 -9.91,8.28 -16.22,14.36l-26.74 32.11c-8.24,11.24 -16.97,22.37 -24.85,34.09 -8.12,12.07 -14.24,23.56 -21.63,37.48 -36.62,68.96 -60.48,149.38 -60.48,240.23z"/>
  <path fill="#5D889E" d="M260.96 819.41c0,144.32 25.34,237.29 117.56,334.72 111.69,118.01 318.35,143.6 473.88,78.53 58.07,-24.3 114.42,-70.27 150.68,-121.66 8.52,-12.06 14.94,-20.67 22.47,-33.97 13.31,-23.52 25.86,-48.21 35,-75.82 21.79,-65.87 31.38,-122.38 31.38,-205.38l-355.77 0c-3.88,17.51 -5.91,42.66 -7.69,62.64 -1.66,18.56 -7.24,44.61 -7.24,63.13l213.96 0c0,63.53 -45.63,133.57 -93.5,168.78 -26.03,19.14 -52.07,32.52 -87.6,41.38 -67.31,16.76 -152.75,10.52 -215.37,-23.21 -13.47,-7.25 -26.56,-16.1 -38.24,-25.23 -63.29,-49.41 -107.66,-137.43 -107.66,-224.61 0,-93.37 3.88,-128.88 44.75,-212.26 18.62,-37.98 60.65,-88.39 93.12,-114.15 81.02,-64.31 189.95,-78.07 287.07,-50.36 25.06,7.15 47.4,19.34 69.31,31.82 33.5,19.08 85.72,70.44 105.34,101.29l92.05 -91.7c-3.65,-14.39 -65.69,-74.96 -81.38,-87.22 -23.61,-18.45 -31.46,-25.48 -59.63,-42.01 -28.25,-16.57 -61.03,-28.09 -96.32,-37.42 -154.36,-40.83 -336.7,2.18 -449.95,121.45 -40.1,42.23 -71.3,84.36 -94.65,141.37 -21.76,53.14 -41.57,125.2 -41.57,199.89z"/>
  <path fill="#5D889E" d="M1378.04 756.53l16.68 -131.77c2.88,-23.1 5.17,-43.22 8.05,-64.88 2.8,-20.98 7.61,-45.7 7.61,-67.97 86.37,0 185.22,-5.36 200.57,87.46 11.35,68.69 -7.12,142.71 -82.6,162.54 -44.48,11.67 -95.86,14.62 -150.31,14.62zm-191.57 487.33l131.86 0 47.27 -374.66 29.86 0 53.68 92.8c18.99,32.51 36.09,61.61 54.7,94.35 5.05,8.89 8.99,14.85 13.41,22.57l26.4 45.55c8.5,14.97 65.96,110.34 68.25,119.39l149.28 0 -228.89 -379.91c8.97,-4.52 40.08,-5.32 84.59,-28.82 92.86,-49.02 129.37,-127.02 129.37,-246.28 0,-74.4 -33.7,-137.4 -86.68,-178.59 -52.36,-40.7 -122.51,-46.74 -211.87,-46.74l-151.77 0 -67.62 549.75c-4.06,35.47 -9.88,75.32 -14.02,110.99 -4.35,37.49 -9.01,71.58 -13.35,109.08 -2.04,17.55 -5.1,37.21 -7.01,55.5 -1.83,17.54 -3.94,39.1 -7.46,55.02z"/>
  <path fill="#5D889E" d="M1868.16 971.38c0,56.08 4.11,95.74 22.7,143.76 64.47,166.49 267.8,175.32 410.2,133.98 99.78,-28.97 176.25,-105.87 211.8,-209.27 23.99,-69.76 47.78,-286.8 57.34,-369.3 5.76,-49.67 13.9,-102.62 19.25,-152.66 3.99,-37.33 17.62,-126.99 17.62,-154.37 -149.34,0 -129.14,-9.41 -133.29,24.71 -1.45,11.96 -2.24,19.41 -3.68,30.16l-22.47 180.72c-8.61,79.82 -20.86,159.98 -30.09,240.79 -8.49,74.37 -25.99,161.75 -59.24,210.1 -44.7,65.01 -105.52,89.06 -196.57,89.06 -49.43,0 -93.89,-18.6 -118.81,-45.17 -15.3,-16.31 -24.87,-26.68 -33.3,-51.4 -24.96,-73.11 -4.82,-151.47 2.83,-225.7 6.68,-64.68 54.74,-414.38 54.74,-453.27 -148.46,0 -130.14,-10.73 -134.56,31.23 -14.23,134.96 -37.01,281.06 -51.82,417.02 -5.54,50.81 -12.65,104.38 -12.65,159.61z"/>
  <path fill="#5D889E" d="M2950.4 740.81l-79.61 0c0,-18.19 11.79,-100.1 14.48,-123.61 2.5,-21.78 4.75,-42.92 7.47,-62.87 2.72,-19.93 6.41,-43.53 7.9,-62.42 61.6,0 158.04,-6.07 198.49,37.25 26.02,27.88 22.94,57.47 22.94,93.75 0,97.84 -93.74,117.9 -171.67,117.9zm-273.66 503.05l131.85 0c0,-17.96 3.26,-30.68 4.98,-47.16l39.8 -327.5c112.9,0 234.82,9.56 316.36,-59.85 86.01,-73.23 111.9,-224.88 61.85,-325.35 -8.54,-17.15 -27.62,-45.73 -42.33,-57.6 -36.05,-29.07 -54.24,-44.66 -109.79,-54.68 -65.51,-11.81 -215.38,-8.2 -288.29,-8.2 -10.54,0 -9.21,23.8 -11.98,47.65l-102.45 832.69z"/>
 </g>
</svg>
