<?xml version="1.0" encoding="UTF-8"?>
<!DOCTYPE svg PUBLIC "-//W3C//DTD SVG 1.1//EN" "http://www.w3.org/Graphics/SVG/1.1/DTD/svg11.dtd">
<!-- Creator: CorelDRAW 2020 (64 Bit) -->
<svg xmlns="http://www.w3.org/2000/svg" xml:space="preserve" width="38.0998mm" height="16.9332mm" version="1.1" shape-rendering="geometricPrecision" text-rendering="geometricPrecision" image-rendering="optimizeQuality" fill-rule="evenodd" clip-rule="evenodd"
viewBox="0 0 3809.98 1693.32"
 xmlns:xlink="http://www.w3.org/1999/xlink"
 xmlns:xodm="http://www.corel.com/coreldraw/odm/2003">
 <g id="Camada_x0020_1">
  <metadata id="CorelCorpID_0Corel-Layer"/>
  <path fill="#315C72" d="M1105.9 881.84l62.39 18.41 1.21 39.17 -0.24 433.81 0.05 12.31 0.13 28.01 -63.56 0.29 0.02 -532zm-268.98 -275.08l84.51 -27.05 0.78 832.57 -85.04 1.88 -0.25 -807.4zm-247.36 226.48l110.9 -34 -0.14 614.97 -110.64 0.05 -0.12 -581.02zm209.42 -258.34c-9.52,9.94 -180.51,59.24 -210.59,70.62l-29.83 9.01 -1.84 149.36 -190.23 60.97 -31.25 9.79 -0.44 538.41 -204.38 1.09 -0.66 29.11 237.65 0.55 0.12 -534.3c12.11,-7.36 174.84,-60.46 189.03,-61.93l0.52 596.13 175.2 0.6 0.7 -696.24 -143.22 45.31 4.38 -105.82c21.27,-10.84 203.84,-67.79 210.06,-69.01l0.19 824.96 151.22 -0.45 -1.09 -914.85 -117.54 36.56 -0.05 -104.04 0.49 -28.35 181.71 -0.27 -1.24 -33.05 -181.05 -0.02 0.67 -25.34 141.58 -0.07 -1.09 -33.14 -141.18 -0.36 0.8 -18.51 106.76 -0.97 -1.14 -32.16 -106.55 0.05 1.64 -30.8 330.89 0.12 0.17 202.52 -0.39 396.68c-25.65,0.05 -71.16,-25.66 -96.21,-26.7l0.18 612.84 129.26 -0.28 0.31 -530.9 235.33 76.97 0.67 453.87 237.9 0.85 -0.24 -29.02 -204.99 -0.66 0.15 -458.61 -39.01 -12.57c-36.53,-8.23 -80.59,-25.3 -115.96,-36.29 -21.56,-6.71 -101.27,-29.52 -113.24,-37.9l-0.54 -233.5 -0.06 -409.59 -398.71 -0.91 -0.12 342.28c-2.57,10.16 1.6,3.61 -4.74,7.96z"/>
  <path fill="#5D889E" d="M955.61 1443.06l117.36 0.14 -0.18 -612.84c25.05,1.04 70.56,26.75 96.21,26.7l0.39 -396.68 -332.46 0.35 0.05 104.04 117.54 -36.56 1.09 914.85z"/>
  <polygon fill="white" points="1202.23,1442.92 1438.54,1442.86 1437.87,988.99 1202.54,912.02 "/>
  <path fill="#5D889E" d="M367.41 1443.81l189.67 -0.1 -0.52 -596.13c-14.19,1.47 -176.92,54.57 -189.03,61.93l-0.12 534.3z"/>
  <path fill="white" d="M732.28 1444.31l72.11 -0.8 -0.19 -824.96c-6.22,1.22 -188.79,58.17 -210.06,69.01l-4.38 105.82 143.22 -45.31 -0.7 696.24z"/>
  <polygon fill="#5D889E" points="837.17,1414.16 922.21,1412.28 921.43,579.71 836.92,606.76 "/>
  <polygon fill="white" points="589.68,1414.26 700.32,1414.21 700.46,799.24 589.56,833.24 "/>
  <path fill="white" d="M1432.35 942.85c7.08,-7.19 5.97,-2.8 5.78,-31.07 -0.55,-78.84 3.44,-212.23 -0.58,-276.89l-234.94 0.27 0.54 233.5c11.97,8.38 91.68,31.19 113.24,37.9 35.37,10.99 79.43,28.06 115.96,36.29z"/>
  <polygon fill="white" points="836.93,460.73 1169.39,460.38 1169.22,257.86 838.33,257.74 836.69,288.54 943.24,288.49 944.38,320.65 837.62,321.62 836.82,340.13 978,340.49 979.09,373.63 837.51,373.7 836.84,399.04 1017.89,399.06 1019.13,432.11 837.42,432.38 "/>
  <polygon fill="#5D889E" points="366.49,864.86 556.72,803.89 558.56,654.53 368.55,654.68 "/>
  <polygon fill="#5D889E" points="1105.88,1413.84 1169.44,1413.55 1169.31,1385.54 1169.26,1373.23 1169.5,939.42 1168.29,900.25 1105.9,881.84 "/>
  <path fill="white" d="M588.39 645.52c30.08,-11.38 201.07,-60.68 210.59,-70.62 -56.78,8.85 -156.07,-8.28 -210.07,2.59l-0.52 68.03z"/>
  <path fill="#315C72" fill-rule="nonzero" d="M1887.78 457.8c10.6,0 19.96,2.65 28.08,7.95 8.11,5.3 14.4,12.71 18.88,22.23 4.47,9.52 6.7,20.58 6.7,33.17 0,12.58 -2.23,23.55 -6.7,32.91 -4.48,9.36 -10.73,16.6 -18.76,21.74 -8.03,5.13 -17.43,7.7 -28.2,7.7 -9.44,0 -17.67,-2.07 -24.71,-6.21 -7.04,-4.14 -12.38,-10.02 -16.03,-17.64l0 58.38c0,2.98 -0.87,5.34 -2.6,7.08 -1.74,1.74 -4.19,2.61 -7.33,2.61 -3.15,0 -5.63,-0.91 -7.46,-2.73 -1.82,-1.83 -2.73,-4.15 -2.73,-6.96l0 -149.8c0,-2.98 0.91,-5.38 2.73,-7.2 1.83,-1.82 4.31,-2.73 7.46,-2.73 3.14,0 5.59,0.91 7.33,2.73 1.73,1.82 2.6,4.22 2.6,7.2l0 13.42c3.65,-7.62 8.99,-13.5 16.03,-17.64 7.04,-4.14 15.27,-6.21 24.71,-6.21zm-3.97 109.05c11.76,0 20.87,-3.97 27.33,-11.92 6.45,-7.95 9.68,-19.21 9.68,-33.78 0,-14.58 -3.23,-25.96 -9.68,-34.16 -6.46,-8.2 -15.57,-12.3 -27.33,-12.3 -11.76,0 -20.83,3.98 -27.2,11.93 -6.38,7.94 -9.57,19.29 -9.57,34.03 0,14.74 3.19,26.12 9.57,34.16 6.37,8.03 15.44,12.04 27.2,12.04z"/>
  <path id="1" fill="#315C72" fill-rule="nonzero" d="M2021.68 583.5c-11.42,0 -21.49,-2.57 -30.18,-7.7 -8.7,-5.14 -15.4,-12.46 -20.12,-21.99 -4.72,-9.52 -7.08,-20.57 -7.08,-33.16 0,-12.59 2.36,-23.64 7.08,-33.17 4.72,-9.52 11.42,-16.85 20.12,-21.98 8.69,-5.13 18.76,-7.7 30.18,-7.7 11.43,0 21.53,2.57 30.31,7.7 8.78,5.13 15.53,12.46 20.25,21.98 4.72,9.53 7.08,20.58 7.08,33.17 0,12.59 -2.36,23.64 -7.08,33.16 -4.72,9.53 -11.47,16.85 -20.25,21.99 -8.78,5.13 -18.88,7.7 -30.31,7.7zm0 -16.65c11.93,0 21.08,-3.93 27.45,-11.8 6.38,-7.86 9.57,-19.33 9.57,-34.4 0,-14.74 -3.23,-26.13 -9.69,-34.16 -6.46,-8.03 -15.57,-12.05 -27.33,-12.05 -11.76,0 -20.86,4.02 -27.32,12.05 -6.46,8.03 -9.69,19.42 -9.69,34.16 0,14.9 3.19,26.33 9.56,34.28 6.38,7.95 15.53,11.92 27.45,11.92z"/>
  <path id="2" fill="#315C72" fill-rule="nonzero" d="M2169.24 458.3c6.96,-0.5 10.43,2.31 10.43,8.44 0,2.65 -0.74,4.76 -2.23,6.34 -1.49,1.57 -4.06,2.52 -7.7,2.85l-7.46 0.75c-11.09,0.99 -19.33,4.93 -24.71,11.8 -5.39,6.87 -8.08,14.94 -8.08,24.22l0 60.37c0,3.31 -0.91,5.79 -2.73,7.45 -1.82,1.65 -4.22,2.48 -7.2,2.48 -2.98,0 -5.43,-0.87 -7.33,-2.61 -1.91,-1.74 -2.86,-4.18 -2.86,-7.32l0 -104.84c0,-3.14 1,-5.59 2.98,-7.33 1.99,-1.74 4.39,-2.6 7.21,-2.6 2.65,0 4.88,0.86 6.7,2.6 1.83,1.74 2.74,4.1 2.74,7.08l0 13.92c3.47,-7.29 8.4,-12.84 14.78,-16.65 6.37,-3.81 13.7,-6.04 21.98,-6.71l3.48 -0.24z"/>
  <path id="3" fill="#315C72" fill-rule="nonzero" d="M2262.65 567.1c5.79,0.5 8.69,3.15 8.69,7.95 0,2.82 -1.03,4.93 -3.1,6.34 -2.07,1.41 -5.18,1.94 -9.32,1.61l-6.71 -0.49c-13.25,-1 -23.02,-4.97 -29.31,-11.93 -6.29,-6.95 -9.44,-17.47 -9.44,-31.55l0 -62.35 -16.65 0c-2.81,0 -5.01,-0.71 -6.58,-2.11 -1.57,-1.41 -2.36,-3.27 -2.36,-5.59 0,-2.49 0.79,-4.47 2.36,-5.96 1.57,-1.5 3.77,-2.24 6.58,-2.24l16.65 0 0 -28.07c0,-3.15 0.91,-5.59 2.73,-7.33 1.82,-1.74 4.31,-2.61 7.45,-2.61 2.99,0 5.39,0.87 7.21,2.61 1.82,1.74 2.73,4.18 2.73,7.33l0 28.07 27.58 0c2.65,0 4.76,0.74 6.33,2.24 1.57,1.49 2.36,3.47 2.36,5.96 0,2.32 -0.79,4.18 -2.36,5.59 -1.57,1.4 -3.68,2.11 -6.33,2.11l-27.58 0 0 63.35c0,9.1 1.86,15.69 5.59,19.74 3.73,4.06 9.32,6.34 16.77,6.84l6.71 0.49z"/>
  <path id="4" fill="#315C72" fill-rule="nonzero" d="M2340.65 457.8c30.3,0 45.46,15.9 45.46,47.7l0 67.57c0,2.98 -0.87,5.38 -2.61,7.2 -1.74,1.82 -4.1,2.73 -7.08,2.73 -2.98,0 -5.38,-0.91 -7.2,-2.73 -1.83,-1.82 -2.74,-4.22 -2.74,-7.2l0 -11.93c-3.14,7.12 -7.95,12.63 -14.41,16.52 -6.45,3.89 -13.91,5.84 -22.35,5.84 -7.79,0 -14.95,-1.57 -21.49,-4.72 -6.54,-3.15 -11.72,-7.54 -15.53,-13.17 -3.81,-5.63 -5.71,-11.84 -5.71,-18.63 0,-9.11 2.32,-16.19 6.95,-21.24 4.64,-5.05 12.26,-8.69 22.86,-10.93 10.6,-2.23 25.34,-3.35 44.22,-3.35l5.46 0 0 -8.2c0,-9.94 -2.03,-17.22 -6.08,-21.86 -4.06,-4.64 -10.64,-6.96 -19.75,-6.96 -11.26,0 -22.69,3.07 -34.28,9.19 -4.48,2.82 -7.62,4.23 -9.44,4.23 -1.99,0 -3.65,-0.75 -4.97,-2.24 -1.33,-1.49 -1.99,-3.39 -1.99,-5.71 0,-2.32 0.7,-4.35 2.11,-6.09 1.41,-1.74 3.69,-3.52 6.83,-5.34 5.8,-3.31 12.38,-5.92 19.75,-7.82 7.37,-1.91 14.7,-2.86 21.99,-2.86zm-8.2 109.8c9.94,0 18.09,-3.35 24.47,-10.06 6.37,-6.71 9.56,-15.36 9.56,-25.96l0 -7.21 -4.47 0c-14.57,0 -25.67,0.63 -33.29,1.87 -7.62,1.24 -13.04,3.31 -16.27,6.21 -3.23,2.9 -4.84,7.16 -4.84,12.79 0,6.46 2.36,11.8 7.08,16.03 4.72,4.22 10.64,6.33 17.76,6.33z"/>
  <path id="5" fill="#315C72" fill-rule="nonzero" d="M2433.06 583c-2.98,0 -5.43,-0.87 -7.33,-2.61 -1.91,-1.74 -2.86,-4.18 -2.86,-7.32l0 -157.75c0,-3.15 0.95,-5.59 2.86,-7.33 1.9,-1.74 4.35,-2.61 7.33,-2.61 2.81,0 5.17,0.87 7.08,2.61 1.9,1.74 2.85,4.18 2.85,7.33l0 157.75c0,3.14 -0.95,5.58 -2.85,7.32 -1.91,1.74 -4.27,2.61 -7.08,2.61z"/>
  <path id="6" fill="#315C72" fill-rule="nonzero" d="M2641.72 405.38c3.15,0 5.63,0.91 7.46,2.73 1.82,1.83 2.73,4.14 2.73,6.96l0 158c0,2.98 -0.91,5.38 -2.73,7.2 -1.83,1.82 -4.31,2.73 -7.46,2.73 -3.14,0 -5.59,-0.91 -7.32,-2.73 -1.74,-1.82 -2.61,-4.22 -2.61,-7.2l0 -13.42c-3.65,7.62 -8.99,13.5 -16.03,17.64 -7.03,4.14 -15.27,6.21 -24.71,6.21 -10.6,0 -19.96,-2.65 -28.08,-7.95 -8.11,-5.3 -14.4,-12.71 -18.88,-22.23 -4.47,-9.53 -6.7,-20.58 -6.7,-33.17 0,-12.42 2.23,-23.35 6.7,-32.79 4.48,-9.44 10.77,-16.73 18.88,-21.86 8.12,-5.13 17.48,-7.7 28.08,-7.7 9.44,0 17.68,2.07 24.71,6.21 7.04,4.14 12.38,10.02 16.03,17.64l0 -66.58c0,-2.98 0.87,-5.34 2.61,-7.08 1.73,-1.74 4.18,-2.61 7.32,-2.61zm-46.7 161.47c11.76,0 20.83,-4.01 27.2,-12.04 6.38,-8.04 9.57,-19.42 9.57,-34.16 0,-14.74 -3.19,-26.09 -9.57,-34.03 -6.37,-7.95 -15.44,-11.93 -27.2,-11.93 -11.76,0 -20.91,3.98 -27.45,11.93 -6.54,7.94 -9.81,19.12 -9.81,33.53 0,14.74 3.27,26.21 9.81,34.41 6.54,8.2 15.69,12.29 27.45,12.29z"/>
  <path id="7" fill="#315C72" fill-rule="nonzero" d="M2739.35 583.5c-11.42,0 -21.49,-2.57 -30.18,-7.7 -8.7,-5.14 -15.4,-12.46 -20.12,-21.99 -4.72,-9.52 -7.08,-20.57 -7.08,-33.16 0,-12.59 2.36,-23.64 7.08,-33.17 4.72,-9.52 11.42,-16.85 20.12,-21.98 8.69,-5.13 18.76,-7.7 30.18,-7.7 11.43,0 21.53,2.57 30.31,7.7 8.78,5.13 15.53,12.46 20.25,21.98 4.72,9.53 7.08,20.58 7.08,33.17 0,12.59 -2.36,23.64 -7.08,33.16 -4.72,9.53 -11.47,16.85 -20.25,21.99 -8.78,5.13 -18.88,7.7 -30.31,7.7zm0 -16.65c11.93,0 21.08,-3.93 27.45,-11.8 6.38,-7.86 9.57,-19.33 9.57,-34.4 0,-14.74 -3.23,-26.13 -9.69,-34.16 -6.46,-8.03 -15.57,-12.05 -27.33,-12.05 -11.76,0 -20.86,4.02 -27.32,12.05 -6.46,8.03 -9.69,19.42 -9.69,34.16 0,14.9 3.19,26.33 9.56,34.28 6.38,7.95 15.53,11.92 27.45,11.92z"/>
  <path fill="#5D889E" fill-rule="nonzero" d="M1965.04 1091.03c-26.81,0 -50.26,-5.35 -70.37,-16.03 -20.11,-10.69 -35.69,-25.82 -46.74,-45.38 -11.04,-19.56 -16.57,-42.21 -16.57,-67.93 0,-29.71 5.8,-55.7 17.39,-77.98 11.59,-22.28 28.26,-39.4 50,-51.36 21.73,-11.95 47.27,-17.93 76.62,-17.93 17.39,0 33.78,2.08 49.18,6.25 15.4,4.17 27.99,9.69 37.77,16.58 7.97,5.07 11.95,13.04 11.95,23.91 0,7.6 -2.08,14.22 -6.25,19.83 -4.16,5.62 -9.51,8.42 -16.03,8.42 -3.62,0 -7.61,-1.08 -11.95,-3.26 -19.57,-12.31 -40.22,-18.47 -61.95,-18.47 -24.28,0 -43.12,8.15 -56.52,24.45 -13.4,16.3 -20.11,39.13 -20.11,68.47 0,24.28 6.07,43.21 18.21,56.79 12.13,13.59 29.07,20.38 50.81,20.38 10.87,0 20.83,-1.45 29.89,-4.35 9.05,-2.89 18.65,-7.42 28.8,-13.58 4.71,-2.54 9.06,-3.81 13.04,-3.81 6.16,0 11.05,2.36 14.67,7.07 3.63,4.71 5.44,10.32 5.44,16.85 0,4.7 -1.09,9.32 -3.26,13.85 -2.18,4.53 -5.44,8.43 -9.78,11.69 -10.15,7.6 -22.83,13.76 -38.04,18.47 -15.22,4.71 -30.62,7.07 -46.2,7.07z"/>
  <path id="1" fill="#5D889E" fill-rule="nonzero" d="M2134.59 1089.94c-9.78,0 -17.75,-2.72 -23.91,-8.15 -6.16,-5.44 -8.88,-13.59 -8.15,-24.46l26.08 -324.97c0.73,-10.5 4.53,-18.38 11.41,-23.64 6.89,-5.25 15.04,-7.88 24.46,-7.88 9.78,0 17.75,2.63 23.91,7.88 6.16,5.26 8.88,13.14 8.15,23.64l-26.08 324.97c-0.73,10.87 -4.53,19.02 -11.42,24.46 -6.88,5.43 -15.03,8.15 -24.45,8.15z"/>
  <path id="2" fill="#5D889E" fill-rule="nonzero" d="M2272.62 1089.94c-9.78,0 -17.75,-2.72 -23.91,-8.15 -6.16,-5.44 -8.88,-13.59 -8.15,-24.46l17.39 -210.3c0.72,-10.51 4.53,-18.39 11.41,-23.64 6.88,-5.25 15.22,-7.88 25,-7.88 9.78,0 17.66,2.63 23.64,7.88 5.97,5.25 8.6,13.13 7.88,23.64l-17.39 210.3c-0.73,10.87 -4.53,19.02 -11.42,24.46 -6.88,5.43 -15.03,8.15 -24.45,8.15zm28.26 -322.8c-12.32,0 -22.1,-3.35 -29.35,-10.05 -7.24,-6.7 -10.87,-15.49 -10.87,-26.36 0,-10.87 3.63,-19.56 10.87,-26.08 7.25,-6.52 17.03,-9.78 29.35,-9.78 11.95,0 21.65,3.26 29.07,9.78 7.43,6.52 11.14,15.21 11.14,26.08 0,10.87 -3.62,19.66 -10.87,26.36 -7.24,6.7 -17.02,10.05 -29.34,10.05z"/>
  <path id="3" fill="#5D889E" fill-rule="nonzero" d="M2622.04 942.13c0,7.61 -2.08,13.49 -6.24,17.66 -4.17,4.17 -9.51,6.25 -16.04,6.25l-161.39 0c1.08,23.91 7.88,42.02 20.37,54.34 12.5,12.32 30.16,18.48 52.99,18.48 12.68,0 24.18,-1.54 34.51,-4.62 10.32,-3.08 20.56,-7.7 30.7,-13.86 4.71,-2.53 9.24,-3.8 13.59,-3.8 6.15,0 10.95,2.26 14.4,6.79 3.44,4.53 5.16,10.05 5.16,16.58 0,10.5 -4.53,19.2 -13.59,26.08 -9.78,7.25 -22.73,13.22 -38.85,17.93 -16.12,4.71 -32.88,7.07 -50.27,7.07 -27.17,0 -50.9,-5.35 -71.19,-16.03 -20.29,-10.69 -35.96,-25.82 -47.01,-45.38 -11.04,-19.56 -16.57,-42.39 -16.57,-68.47 0,-28.26 5.62,-53.53 16.85,-75.81 11.23,-22.28 26.99,-39.67 47.28,-52.17 20.28,-12.5 43.47,-18.75 69.55,-18.75 36.96,0 65.49,11.05 85.59,33.15 20.11,22.1 30.16,53.62 30.16,94.56zm-113.03 -79.89c-38.4,0 -61.23,22.47 -68.47,67.39l123.9 0c0.36,-22.1 -4.35,-38.86 -14.13,-50.27 -9.78,-11.41 -23.55,-17.12 -41.3,-17.12z"/>
  <path id="4" fill="#5D889E" fill-rule="nonzero" d="M2837.24 814.42c29.71,0 52.26,8.06 67.66,24.18 15.4,16.13 23.09,39.95 23.09,71.47 0,6.88 -0.18,12.13 -0.54,15.75l-10.87 131.51c-0.72,10.15 -4.34,18.12 -10.87,23.92 -6.52,5.79 -14.85,8.69 -24.99,8.69 -10.51,0 -18.66,-2.9 -24.46,-8.69 -5.79,-5.8 -8.33,-13.77 -7.61,-23.92l10.87 -128.79c2.9,-40.21 -13.04,-60.32 -47.82,-60.32 -19.93,0 -35.5,5.98 -46.73,17.93 -11.24,11.96 -17.76,28.62 -19.57,50l-10.32 121.18c-0.73,10.15 -4.35,18.12 -10.87,23.92 -6.52,5.79 -14.86,8.69 -25,8.69 -10.51,0 -18.57,-2.9 -24.18,-8.69 -5.62,-5.8 -8.24,-13.77 -7.88,-23.92l17.39 -210.85c0.36,-9.42 3.98,-16.93 10.87,-22.55 6.88,-5.61 15.39,-8.42 25.54,-8.42 9.78,0 17.39,2.72 22.82,8.15 5.44,5.43 7.61,12.68 6.52,21.74l-0.54 10.32c9.06,-13.04 21.19,-23.18 36.41,-30.43 15.22,-7.25 32.24,-10.87 51.08,-10.87z"/>
  <path id="5" fill="#5D889E" fill-rule="nonzero" d="M3077.98 985.6c-0.36,2.18 -0.54,5.44 -0.54,9.78 0,14.5 3.35,25.54 10.05,33.15 6.71,7.61 16.22,11.42 28.53,11.42 3.27,0 7.16,-0.28 11.69,-0.82 4.53,-0.54 8.24,-0.82 11.14,-0.82 5.07,0 9.06,2 11.95,5.98 2.9,3.99 4.35,9.42 4.35,16.31 0,11.23 -3.98,19.02 -11.95,23.36 -7.97,4.35 -21.92,6.52 -41.85,6.52 -29.34,0 -51.99,-7.79 -67.93,-23.36 -15.94,-15.58 -23.91,-37.68 -23.91,-66.3 0,-6.52 0.18,-11.41 0.55,-14.67l8.69 -114.12 -26.63 0c-9.05,0 -16.12,-2.09 -21.19,-6.25 -5.07,-4.17 -7.61,-10.24 -7.61,-18.21 0,-17.75 10.69,-26.63 32.06,-26.63l27.72 0 3.8 -49.99c0.73,-9.78 4.35,-17.48 10.87,-23.1 6.52,-5.61 15.04,-8.42 25.54,-8.42 10.51,0 18.57,2.81 24.18,8.42 5.62,5.62 8.07,13.5 7.34,23.64l-3.8 49.45 45.65 0c9.05,0 16.03,2.09 20.92,6.25 4.89,4.17 7.33,10.06 7.33,17.66 0,18.12 -10.5,27.18 -31.52,27.18l-46.73 0 -8.7 113.57z"/>
  <path id="6" fill="#5D889E" fill-rule="nonzero" d="M3429.04 942.13c0,7.61 -2.08,13.49 -6.24,17.66 -4.17,4.17 -9.51,6.25 -16.04,6.25l-161.39 0c1.08,23.91 7.88,42.02 20.37,54.34 12.5,12.32 30.16,18.48 52.99,18.48 12.68,0 24.18,-1.54 34.51,-4.62 10.32,-3.08 20.56,-7.7 30.7,-13.86 4.71,-2.53 9.24,-3.8 13.59,-3.8 6.15,0 10.95,2.26 14.4,6.79 3.44,4.53 5.16,10.05 5.16,16.58 0,10.5 -4.53,19.2 -13.59,26.08 -9.78,7.25 -22.73,13.22 -38.85,17.93 -16.12,4.71 -32.88,7.07 -50.27,7.07 -27.17,0 -50.9,-5.35 -71.19,-16.03 -20.29,-10.69 -35.96,-25.82 -47.01,-45.38 -11.04,-19.56 -16.57,-42.39 -16.57,-68.47 0,-28.26 5.62,-53.53 16.85,-75.81 11.23,-22.28 26.99,-39.67 47.28,-52.17 20.28,-12.5 43.47,-18.75 69.55,-18.75 36.96,0 65.49,11.05 85.59,33.15 20.11,22.1 30.16,53.62 30.16,94.56zm-113.03 -79.89c-38.4,0 -61.23,22.47 -68.47,67.39l123.9 0c0.36,-22.1 -4.35,-38.86 -14.13,-50.27 -9.78,-11.41 -23.55,-17.12 -41.3,-17.12z"/>
  <path fill="#5D889E" d="M3353.91 1249.71l2.24 0c0,6.15 9.43,31.71 12.3,37.42l-25.73 0c0.74,-8.49 10.96,-27.43 11.19,-37.42zm-89.51 19.24l-7.84 0 0 -23.52c9.62,0 23.5,-0.32 23.5,11.76 0,8.96 -6.24,11.76 -15.66,11.76zm-29.1 54.54l21.26 0 0 -41.7c4.08,4.48 24.29,40.52 24.62,41.7l48.11 0 6.88 -20.26 36.76 -0.06c1.7,3.08 7.51,16.58 7.83,20.32l24.62 0c-1.06,-4.34 -2.79,-8.32 -4.32,-11.91 -1.7,-4.01 -3.02,-7.76 -4.62,-11.62 -3.15,-7.56 -6.41,-15.11 -9.38,-23.12 -3.25,-8.75 -16.92,-40.54 -18.61,-47.45l-25.73 0c-0.42,4.83 -23.4,59.87 -26.98,69.38 -2.71,7.17 -6.97,16.05 -8.83,23.65 -3.44,-2.2 -25.61,-37.26 -26.85,-41.7 31.48,-7.01 27.82,-51.33 -8.95,-51.33l-35.81 0 0 94.1z"/>
  <path fill="#315C72" d="M2236.12 1323.49l40.28 0c0,-2.18 6.53,-39.99 8.61,-45.24 0.07,-0.17 0.19,-0.51 0.35,-0.74 2.11,8.66 16.01,38.26 17.9,45.98l40.28 0 19.33 -94.04 -39.47 -0.06c-0.23,9.89 -8.95,36.8 -8.95,47.05l-17.12 -42.46c-1.09,-2.89 -0.54,-4.59 -4.14,-4.59l-38.05 0c0,9.66 -17.91,81.38 -19.02,94.1z"/>
  <path fill="#315C72" d="M2154.44 1259.33c0,12.04 4.43,19.13 13.86,24.18 3.93,2.11 10.14,3.58 14.4,4.42 6.18,1.22 10.32,1.59 13.14,5.62 -3.96,14.2 -30.71,-3.14 -35.8,-4.28 -2.13,8.75 -10.55,20.42 -11.19,27.81 15.61,3.47 13.57,9.62 45.87,9.62 11.3,0 21.19,-3.83 27.66,-8.86l4.69 -4.07c13.89,-13.74 12.95,-39.44 -6.73,-46.84 -12.5,-4.7 -24.63,-3.29 -26.73,-10.81 6.71,-8.76 24.22,1.25 30.21,4.28l11.18 -25.67c-10.61,-5.36 -22.44,-8.19 -33.7,-8.55l-4.77 0c-22.81,0.72 -42.09,11.94 -42.09,33.15z"/>
  <path fill="#5D889E" d="M2610.96 1253.98l0.33 0.32c-0.02,-0.02 -0.44,-0.21 -0.33,-0.32zm-19.03 69.51l20.14 0 0 -67.37c0.16,0.22 0.35,0.32 0.41,0.69 0.98,6.21 39.02,51.21 45.31,59.35 7.24,9.35 3.4,7.33 27.01,7.33l0 -94.1 -21.26 0 0 52.4c0,6.5 1.12,7.8 1.12,13.9 -1.07,-1.18 0.05,0.42 -1.42,-1.85 -0.7,-1.07 -0.45,-0.69 -1.2,-2.05 -6.27,-11.39 -26.64,-35.36 -35.43,-46.35 -15.91,-19.86 -6.53,-16.05 -34.68,-16.05l0 94.1z"/>
  <path fill="#5D889E" d="M2521.44 1245.43c41.21,0 41.71,62.02 0,62.02 -39.54,0 -39.31,-62.02 0,-62.02zm-51.46 26.73c0,16.37 1.78,27.12 14.79,39.33 15.89,14.92 40.7,18.67 61.3,8.81 7.15,-3.42 8.76,-4.65 14.27,-9.89 19.21,-18.29 18.87,-49.56 0.02,-67.95 -25.22,-24.61 -68.48,-18.64 -85.18,11.15 -2.33,4.15 -5.2,12.64 -5.2,18.55z"/>
  <path fill="#5D889E" d="M3165.93 1307.45c-44.28,0 -37.23,-62.02 -3.35,-62.02l5.59 0c34.81,0 38.68,62.02 -2.24,62.02zm-3.35 18.18c16.73,0 27.79,-2.7 40.03,-14.14 20,-18.7 20.01,-51.31 0,-70.1 -31.95,-30 -89.78,-10.07 -89.78,35.05 0,27.62 23.93,49.19 49.75,49.19z"/>
  <path fill="#5D889E" d="M2886.21 1268.95l-7.84 0 0 -23.52 8.96 0c8.53,0 14.33,3.97 14.33,11.76 0,8.64 -5.91,11.76 -15.45,11.76zm-30.21 51.33c0,5.2 8.14,3.21 22.37,3.21l0 -41.7 24.62 41.7 24.62 0c-1.6,-5.72 -24.24,-36.63 -25.74,-42.77 31.58,-7.03 27.29,-51.33 -8.95,-51.33l-36.92 0 0 90.89z"/>
  <path fill="#5D889E" d="M2938.8 1286.06c0,23 12.33,39.57 35.8,39.57l12.31 0c20.6,0 36.92,-12.6 36.92,-32.08l0 -64.16 -21.26 0 0 57.74c0,16.56 -10.14,20.32 -23.49,20.32 -15.99,0 -19.03,-13.45 -19.03,-28.87l0 -49.19 -21.25 0 0 56.67z"/>
  <path fill="#5D889E" d="M2371.51 1272.16l0 8.56c0,22.45 23.61,44.91 47,44.91 31.45,0 21.05,-3.13 35.8,-6.41 0,-6.59 -1.26,-16.65 1.12,-21.39 -0.78,0.2 -30.28,21.56 -51.79,3.51 -12.97,-10.89 -13.91,-36.9 -0.01,-49.81 9.66,-8.97 27.07,-10.12 39.31,-4.86 4.63,1.99 8,5.04 12.49,7.31l0 -20.31c-24.76,-12.53 -63.3,-8.76 -78.73,19.93 -2.59,4.82 -5.19,11.79 -5.19,18.56z"/>
  <path fill="#5D889E" d="M2700.47 1252.91c0,23.41 28.63,28.39 39.7,36.92 18.04,13.89 -15.95,31.75 -28.51,9.07 -2.59,1.66 -4.14,3.18 -6.25,5.79 -2.43,3.02 -4.21,4.41 -6.06,7.04 12.55,13.79 17.22,13.9 35.81,13.9 28.1,0 49.04,-36.57 8.21,-55.97 -6.33,-3 -21.64,-8.22 -21.64,-15.68 0,-12.65 19.68,-15.03 27.97,-3.2 1.36,-0.88 11.51,-9.65 12.31,-10.7 -3.9,-13.95 -35.6,-18.37 -52.29,-5.06 -4.27,3.41 -9.25,11 -9.25,17.89z"/>
  <polygon fill="#5D889E" points="2774.32,1246.5 2797.81,1246.5 2797.81,1323.49 2819.07,1323.49 2819.07,1246.5 2843.69,1246.5 2843.69,1229.39 2774.32,1229.39 "/>
  <polygon fill="#5D889E" points="3037.26,1246.5 3060.76,1246.5 3060.76,1323.49 3082.01,1323.49 3082.01,1246.5 3106.63,1246.5 3106.63,1229.39 3037.26,1229.39 "/>
  <path fill="#5D889E" d="M3353.91 1249.71l2.24 0c0,6.15 9.43,31.71 12.3,37.42l-25.73 0c0.74,-8.49 10.96,-27.43 11.19,-37.42zm-89.51 19.24l-7.84 0 0 -23.52c9.62,0 23.5,-0.32 23.5,11.76 0,8.96 -6.24,11.76 -15.66,11.76zm-29.1 54.54l21.26 0 0 -41.7c4.08,4.48 24.29,40.52 24.62,41.7l48.11 0 6.88 -20.26 36.76 -0.06c1.7,3.08 7.51,16.58 7.83,20.32l24.62 0c-1.06,-4.34 -2.79,-8.32 -4.32,-11.91 -1.7,-4.01 -3.02,-7.76 -4.62,-11.62 -3.15,-7.56 -6.41,-15.11 -9.38,-23.12 -3.25,-8.75 -16.92,-40.54 -18.61,-47.45l-25.73 0c-0.42,4.83 -23.4,59.87 -26.98,69.38 -2.71,7.17 -6.97,16.05 -8.83,23.65 -3.44,-2.2 -25.61,-37.26 -26.85,-41.7 31.48,-7.01 27.82,-51.33 -8.95,-51.33l-35.81 0 0 94.1z"/>
  <path fill="#315C72" d="M2236.12 1323.49l40.28 0c0,-2.18 6.53,-39.99 8.61,-45.24 0.07,-0.17 0.19,-0.51 0.35,-0.74 2.11,8.66 16.01,38.26 17.9,45.98l40.28 0 19.33 -94.04 -39.47 -0.06c-0.23,9.89 -8.95,36.8 -8.95,47.05l-17.12 -42.46c-1.09,-2.89 -0.54,-4.59 -4.14,-4.59l-38.05 0c0,9.66 -17.91,81.38 -19.02,94.1z"/>
  <path fill="#315C72" d="M2154.44 1259.33c0,12.04 4.43,19.13 13.86,24.18 3.93,2.11 10.14,3.58 14.4,4.42 6.18,1.22 10.32,1.59 13.14,5.62 -3.96,14.2 -30.71,-3.14 -35.8,-4.28 -2.13,8.75 -10.55,20.42 -11.19,27.81 15.61,3.47 13.57,9.62 45.87,9.62 11.3,0 21.19,-3.83 27.66,-8.86l4.69 -4.07c13.89,-13.74 12.95,-39.44 -6.73,-46.84 -12.5,-4.7 -24.63,-3.29 -26.73,-10.81 6.71,-8.76 24.22,1.25 30.21,4.28l11.18 -25.67c-10.61,-5.36 -22.44,-8.19 -33.7,-8.55l-4.77 0c-22.81,0.72 -42.09,11.94 -42.09,33.15z"/>
  <path fill="#5D889E" d="M2610.96 1253.98l0.33 0.32c-0.02,-0.02 -0.44,-0.21 -0.33,-0.32zm-19.03 69.51l20.14 0 0 -67.37c0.16,0.22 0.35,0.32 0.41,0.69 0.98,6.21 39.02,51.21 45.31,59.35 7.24,9.35 3.4,7.33 27.01,7.33l0 -94.1 -21.26 0 0 52.4c0,6.5 1.12,7.8 1.12,13.9 -1.07,-1.18 0.05,0.42 -1.42,-1.85 -0.7,-1.07 -0.45,-0.69 -1.2,-2.05 -6.27,-11.39 -26.64,-35.36 -35.43,-46.35 -15.91,-19.86 -6.53,-16.05 -34.68,-16.05l0 94.1z"/>
  <path fill="#5D889E" d="M2521.44 1245.43c41.21,0 41.71,62.02 0,62.02 -39.54,0 -39.31,-62.02 0,-62.02zm-51.46 26.73c0,16.37 1.78,27.12 14.79,39.33 15.89,14.92 40.7,18.67 61.3,8.81 7.14,-3.42 8.76,-4.65 14.27,-9.89 19.21,-18.29 18.87,-49.56 0.02,-67.95 -25.22,-24.61 -68.48,-18.64 -85.18,11.15 -2.33,4.15 -5.2,12.64 -5.2,18.55z"/>
  <path fill="#5D889E" d="M3165.93 1307.45c-44.28,0 -37.23,-62.02 -3.35,-62.02l5.59 0c34.81,0 38.68,62.02 -2.24,62.02zm-3.35 18.18c16.73,0 27.79,-2.7 40.03,-14.14 20,-18.7 20.01,-51.31 0,-70.1 -31.95,-30 -89.78,-10.07 -89.78,35.05 0,27.62 23.93,49.19 49.75,49.19z"/>
  <path fill="#5D889E" d="M2886.21 1268.95l-7.84 0 0 -23.52 8.96 0c8.53,0 14.33,3.97 14.33,11.76 0,8.64 -5.91,11.76 -15.45,11.76zm-30.21 51.33c0,5.2 8.14,3.21 22.37,3.21l0 -41.7 24.62 41.7 24.62 0c-1.6,-5.72 -24.24,-36.63 -25.74,-42.77 31.58,-7.03 27.29,-51.33 -8.95,-51.33l-36.92 0 0 90.89z"/>
  <path fill="#5D889E" d="M2938.8 1286.06c0,23 12.33,39.57 35.8,39.57l12.31 0c20.6,0 36.92,-12.6 36.92,-32.08l0 -64.16 -21.26 0 0 57.74c0,16.56 -10.14,20.32 -23.49,20.32 -15.99,0 -19.03,-13.45 -19.03,-28.87l0 -49.19 -21.25 0 0 56.67z"/>
  <path fill="#5D889E" d="M2371.51 1272.16l0 8.56c0,22.45 23.61,44.91 47,44.91 31.45,0 21.05,-3.13 35.8,-6.41 0,-6.59 -1.26,-16.65 1.12,-21.39 -0.78,0.2 -30.28,21.56 -51.79,3.51 -12.97,-10.89 -13.91,-36.9 -0.01,-49.81 9.66,-8.97 27.07,-10.12 39.31,-4.86 4.63,1.99 8,5.04 12.49,7.31l0 -20.31c-24.76,-12.53 -63.3,-8.76 -78.73,19.93 -2.59,4.82 -5.19,11.79 -5.19,18.56z"/>
  <path fill="#5D889E" d="M2700.47 1252.91c0,23.41 28.63,28.39 39.7,36.92 18.04,13.89 -15.95,31.75 -28.51,9.07 -2.59,1.66 -4.14,3.18 -6.25,5.79 -2.43,3.02 -4.21,4.41 -6.06,7.04 12.55,13.79 17.22,13.9 35.81,13.9 28.1,0 49.04,-36.57 8.21,-55.97 -6.33,-3 -21.64,-8.22 -21.64,-15.68 0,-12.65 19.68,-15.03 27.97,-3.2 1.36,-0.88 11.51,-9.65 12.31,-10.7 -3.9,-13.95 -35.6,-18.37 -52.29,-5.06 -4.27,3.41 -9.25,11 -9.25,17.89z"/>
  <polygon fill="#5D889E" points="2774.32,1246.5 2797.81,1246.5 2797.81,1323.49 2819.07,1323.49 2819.07,1246.5 2843.69,1246.5 2843.69,1229.39 2774.32,1229.39 "/>
  <polygon fill="#5D889E" points="3037.26,1246.5 3060.76,1246.5 3060.76,1323.49 3082.01,1323.49 3082.01,1246.5 3106.63,1246.5 3106.63,1229.39 3037.26,1229.39 "/>
 </g>
</svg>
